# xmcd
#
# Track frame offsets:
#	150
#	13391
#	26388
#	41844
#	65515
#	82510
#	96867
#	115452
#	131450
#	145760
#	159151
#	175608
#	190573
#	209142
#	222890
#	236675
#	251317
#	272566
#	293191
#	311512
#	329757
#
# Disc length: 4613 seconds
# Revision: 1
# Processed by: cddbd v1.5.2PL0 Copyright (c) Steve Scherf et al.
# Submitted via: dBpowerAMP V12.0
#
DISCID=29120315
DTITLE=Bill Wyman's Rhythm Kings - The best of Bill Wyman's Rhythm Kings
DYEAR=2010
DGENRE=Rock
TTITLE0=Down in the bottom
TTITLE1=Streamline woman
TTITLE2=Anyway the wind blows
TTITLE3=Hot foot blues
TTITLE4=Disappearing nightly
TTITLE5=Jitterbug boogie
TTITLE6=Mood swing
TTITLE7=Roll' em pete
TTITLE8=Hole in the wall
TTITLE9=Too late
TTITLE10=Mississippi flyer
TTITLE11=Memphis woman
TTITLE12=Sugar babe
TTITLE13=The joint is jumping
TTITLE14=Tell you a secret
TTITLE15=Green river
TTITLE16=Turn on your lovelight
TTITLE17=Tobacco road
TTITLE18=Long walk to D.C
TTITLE19=Down home girl
TTITLE20=Gambler's lament
EXTD=
EXTT0=
EXTT1=
EXTT2=
EXTT3=
EXTT4=
EXTT5=
EXTT6=
EXTT7=
EXTT8=
EXTT9=
EXTT10=
EXTT11=
EXTT12=
EXTT13=
EXTT14=
EXTT15=
EXTT16=
EXTT17=
EXTT18=
EXTT19=
EXTT20=
PLAYORDER=
